<svg width="279" height="282" viewBox="0 0 279 282" fill="none" xmlns="http://www.w3.org/2000/svg">
<path d="M138.375 0C150.801 0 160.875 10.0736 160.875 22.5C160.875 32.5746 154.253 41.1016 145.125 43.9688V82.4277C157.587 83.6537 168.973 88.5445 178.192 96.0068L204.845 67.1309C202.648 63.6563 201.375 59.5396 201.375 55.125C201.375 42.6987 211.449 32.6252 223.875 32.625C236.301 32.625 246.375 42.6986 246.375 55.125C246.375 67.5514 236.301 77.625 223.875 77.625C219.944 77.6249 216.25 76.6154 213.034 74.8438L186.27 103.842C194.883 113.845 200.38 126.608 201.252 140.625H234.253C235.881 129.8 245.221 121.5 256.5 121.5C268.926 121.5 279 131.574 279 144C279 156.426 268.926 166.5 256.5 166.5C246.844 166.5 238.61 160.417 235.418 151.875H200.95C199.687 162.702 195.654 172.682 189.579 181.09L216.505 205.227C219.698 203.488 223.359 202.5 227.25 202.5C239.676 202.5 249.75 212.574 249.75 225C249.75 237.426 239.676 247.5 227.25 247.5C214.824 247.5 204.75 237.426 204.75 225C204.75 220.562 206.036 216.425 208.254 212.938L182.198 189.581C172.371 199.026 159.461 205.286 145.125 206.696V237.28C154.253 240.147 160.875 248.675 160.875 258.75C160.875 271.176 150.801 281.25 138.375 281.25C125.949 281.25 115.875 271.176 115.875 258.75C115.875 247.865 123.605 238.785 133.875 236.7V206.797C122.061 205.849 111.174 201.612 102.132 195.003L82.1855 216.615C84.2876 220.037 85.4999 224.064 85.5 228.375C85.5 240.801 75.4264 250.875 63 250.875C50.5736 250.875 40.5 240.801 40.5 228.375C40.5002 215.949 50.5737 205.875 63 205.875C67.0337 205.875 70.819 206.938 74.0928 208.797L93.6787 187.575C84.6129 178.039 78.5306 165.641 76.9248 151.875H43.9688C41.1016 161.003 32.5746 167.625 22.5 167.625C10.0736 167.625 0 157.551 0 145.125C8.86491e-05 132.699 10.0736 122.625 22.5 122.625C33.3853 122.625 42.465 130.355 44.5498 140.625H76.623C77.421 127.803 82.0882 116.03 89.4717 106.459L64.4678 84.0439C61.3407 85.6907 57.7798 86.625 54 86.625C41.5736 86.6249 31.5 76.5514 31.5 64.125C31.5001 51.6987 41.5737 41.6251 54 41.625C66.4264 41.625 76.4999 51.6986 76.5 64.125C76.5 68.6692 75.1506 72.8972 72.834 76.4346L97.1152 98.2012C107.012 89.2676 119.784 83.4588 133.875 82.3281V44.5488C123.605 42.464 115.875 33.3852 115.875 22.5C115.875 10.0736 125.949 8.45314e-05 138.375 0ZM108.968 187.597C116.161 192.615 124.67 195.875 133.875 196.757V166.049C132.517 165.773 131.204 165.375 129.947 164.867L108.968 187.597ZM151.631 162.18C149.677 163.607 147.485 164.727 145.125 165.469V196.638C156.508 195.3 166.776 190.316 174.729 182.885L151.631 162.18ZM87.0059 151.875C88.5219 162.74 93.3676 172.539 100.479 180.208L120.861 158.125C119.358 156.263 118.146 154.157 117.293 151.875H87.0059ZM159.457 151.875C159.253 152.421 159.028 152.957 158.783 153.482L182.084 174.37C186.629 167.803 189.715 160.148 190.869 151.875H159.457ZM96.9424 113.155C91.1219 120.925 87.4082 130.364 86.6465 140.625H116.128C116.551 137.812 117.493 135.17 118.856 132.8L96.9424 113.155ZM158.5 133.931C159.538 136 160.266 138.252 160.623 140.625H191.229C190.404 129.509 186.114 119.358 179.435 111.248L158.5 133.931ZM145.125 122.53C147.256 123.199 149.249 124.177 151.055 125.411L171.393 103.374C163.99 97.533 154.975 93.6442 145.125 92.4863V122.53ZM133.875 92.3672C122.735 93.4344 112.612 97.9852 104.61 104.92L126.727 124.746C128.896 123.431 131.306 122.472 133.875 121.95V92.3672Z" fill="black"/>
</svg>
