<svg width="279" height="282" viewBox="0 0 279 282" fill="none" xmlns="http://www.w3.org/2000/svg">
<mask id="path-1-inside-1_5_17" fill="white">
<path d="M138.375 0C150.801 0 160.875 10.0736 160.875 22.5C160.875 32.5746 154.253 41.1016 145.125 43.9688V82.4277C157.587 83.6537 168.973 88.5445 178.192 96.0068L204.845 67.1309C202.648 63.6563 201.375 59.5396 201.375 55.125C201.375 42.6987 211.449 32.6252 223.875 32.625C236.301 32.625 246.375 42.6986 246.375 55.125C246.375 67.5514 236.301 77.625 223.875 77.625C219.944 77.6249 216.25 76.6154 213.034 74.8438L186.27 103.842C194.883 113.845 200.38 126.608 201.252 140.625H234.253C235.881 129.8 245.221 121.5 256.5 121.5C268.926 121.5 279 131.574 279 144C279 156.426 268.926 166.5 256.5 166.5C246.844 166.5 238.61 160.417 235.418 151.875H200.95C199.687 162.702 195.654 172.682 189.579 181.09L216.505 205.227C219.698 203.488 223.359 202.5 227.25 202.5C239.676 202.5 249.75 212.574 249.75 225C249.75 237.426 239.676 247.5 227.25 247.5C214.824 247.5 204.75 237.426 204.75 225C204.75 220.562 206.036 216.425 208.254 212.938L182.198 189.581C172.371 199.026 159.461 205.286 145.125 206.696V237.28C154.253 240.147 160.875 248.675 160.875 258.75C160.875 271.176 150.801 281.25 138.375 281.25C125.949 281.25 115.875 271.176 115.875 258.75C115.875 247.865 123.605 238.785 133.875 236.7V206.797C122.061 205.849 111.174 201.612 102.132 195.003L82.1855 216.615C84.2876 220.037 85.4999 224.064 85.5 228.375C85.5 240.801 75.4264 250.875 63 250.875C50.5736 250.875 40.5 240.801 40.5 228.375C40.5002 215.949 50.5737 205.875 63 205.875C67.0337 205.875 70.819 206.938 74.0928 208.797L93.6787 187.575C84.6129 178.039 78.5306 165.641 76.9248 151.875H43.9688C41.1016 161.003 32.5746 167.625 22.5 167.625C10.0736 167.625 0 157.551 0 145.125C8.86491e-05 132.699 10.0736 122.625 22.5 122.625C33.3853 122.625 42.465 130.355 44.5498 140.625H76.623C77.421 127.803 82.0882 116.03 89.4717 106.459L64.4678 84.0439C61.3407 85.6907 57.7798 86.625 54 86.625C41.5736 86.6249 31.5 76.5514 31.5 64.125C31.5001 51.6987 41.5737 41.6251 54 41.625C66.4264 41.625 76.4999 51.6986 76.5 64.125C76.5 68.6692 75.1506 72.8972 72.834 76.4346L97.1152 98.2012C107.012 89.2676 119.784 83.4588 133.875 82.3281V44.5488C123.605 42.464 115.875 33.3852 115.875 22.5C115.875 10.0736 125.949 8.45314e-05 138.375 0ZM108.968 187.597C116.161 192.615 124.67 195.875 133.875 196.757V166.049C132.517 165.773 131.204 165.375 129.947 164.867L108.968 187.597ZM151.631 162.18C149.677 163.607 147.485 164.727 145.125 165.469V196.638C156.508 195.3 166.776 190.316 174.729 182.885L151.631 162.18ZM87.0059 151.875C88.5219 162.74 93.3676 172.539 100.479 180.208L120.861 158.125C119.358 156.263 118.146 154.157 117.293 151.875H87.0059ZM159.457 151.875C159.253 152.421 159.028 152.957 158.783 153.482L182.084 174.37C186.629 167.803 189.715 160.148 190.869 151.875H159.457ZM96.9424 113.155C91.1219 120.925 87.4082 130.364 86.6465 140.625H116.128C116.551 137.812 117.493 135.17 118.856 132.8L96.9424 113.155ZM158.5 133.931C159.538 136 160.266 138.252 160.623 140.625H191.229C190.404 129.509 186.114 119.358 179.435 111.248L158.5 133.931ZM145.125 122.53C147.256 123.199 149.249 124.177 151.055 125.411L171.393 103.374C163.99 97.533 154.975 93.6442 145.125 92.4863V122.53ZM133.875 92.3672C122.735 93.4344 112.612 97.9852 104.61 104.92L126.727 124.746C128.896 123.431 131.306 122.472 133.875 121.95V92.3672Z"/>
</mask>
<path d="M138.375 0C150.801 0 160.875 10.0736 160.875 22.5C160.875 32.5746 154.253 41.1016 145.125 43.9688V82.4277C157.587 83.6537 168.973 88.5445 178.192 96.0068L204.845 67.1309C202.648 63.6563 201.375 59.5396 201.375 55.125C201.375 42.6987 211.449 32.6252 223.875 32.625C236.301 32.625 246.375 42.6986 246.375 55.125C246.375 67.5514 236.301 77.625 223.875 77.625C219.944 77.6249 216.25 76.6154 213.034 74.8438L186.27 103.842C194.883 113.845 200.38 126.608 201.252 140.625H234.253C235.881 129.8 245.221 121.5 256.5 121.5C268.926 121.5 279 131.574 279 144C279 156.426 268.926 166.5 256.5 166.5C246.844 166.5 238.61 160.417 235.418 151.875H200.95C199.687 162.702 195.654 172.682 189.579 181.09L216.505 205.227C219.698 203.488 223.359 202.5 227.25 202.5C239.676 202.5 249.75 212.574 249.75 225C249.75 237.426 239.676 247.5 227.25 247.5C214.824 247.5 204.75 237.426 204.75 225C204.75 220.562 206.036 216.425 208.254 212.938L182.198 189.581C172.371 199.026 159.461 205.286 145.125 206.696V237.28C154.253 240.147 160.875 248.675 160.875 258.75C160.875 271.176 150.801 281.25 138.375 281.25C125.949 281.25 115.875 271.176 115.875 258.75C115.875 247.865 123.605 238.785 133.875 236.7V206.797C122.061 205.849 111.174 201.612 102.132 195.003L82.1855 216.615C84.2876 220.037 85.4999 224.064 85.5 228.375C85.5 240.801 75.4264 250.875 63 250.875C50.5736 250.875 40.5 240.801 40.5 228.375C40.5002 215.949 50.5737 205.875 63 205.875C67.0337 205.875 70.819 206.938 74.0928 208.797L93.6787 187.575C84.6129 178.039 78.5306 165.641 76.9248 151.875H43.9688C41.1016 161.003 32.5746 167.625 22.5 167.625C10.0736 167.625 0 157.551 0 145.125C8.86491e-05 132.699 10.0736 122.625 22.5 122.625C33.3853 122.625 42.465 130.355 44.5498 140.625H76.623C77.421 127.803 82.0882 116.03 89.4717 106.459L64.4678 84.0439C61.3407 85.6907 57.7798 86.625 54 86.625C41.5736 86.6249 31.5 76.5514 31.5 64.125C31.5001 51.6987 41.5737 41.6251 54 41.625C66.4264 41.625 76.4999 51.6986 76.5 64.125C76.5 68.6692 75.1506 72.8972 72.834 76.4346L97.1152 98.2012C107.012 89.2676 119.784 83.4588 133.875 82.3281V44.5488C123.605 42.464 115.875 33.3852 115.875 22.5C115.875 10.0736 125.949 8.45314e-05 138.375 0ZM108.968 187.597C116.161 192.615 124.67 195.875 133.875 196.757V166.049C132.517 165.773 131.204 165.375 129.947 164.867L108.968 187.597ZM151.631 162.18C149.677 163.607 147.485 164.727 145.125 165.469V196.638C156.508 195.3 166.776 190.316 174.729 182.885L151.631 162.18ZM87.0059 151.875C88.5219 162.74 93.3676 172.539 100.479 180.208L120.861 158.125C119.358 156.263 118.146 154.157 117.293 151.875H87.0059ZM159.457 151.875C159.253 152.421 159.028 152.957 158.783 153.482L182.084 174.37C186.629 167.803 189.715 160.148 190.869 151.875H159.457ZM96.9424 113.155C91.1219 120.925 87.4082 130.364 86.6465 140.625H116.128C116.551 137.812 117.493 135.17 118.856 132.8L96.9424 113.155ZM158.5 133.931C159.538 136 160.266 138.252 160.623 140.625H191.229C190.404 129.509 186.114 119.358 179.435 111.248L158.5 133.931ZM145.125 122.53C147.256 123.199 149.249 124.177 151.055 125.411L171.393 103.374C163.99 97.533 154.975 93.6442 145.125 92.4863V122.53ZM133.875 92.3672C122.735 93.4344 112.612 97.9852 104.61 104.92L126.727 124.746C128.896 123.431 131.306 122.472 133.875 121.95V92.3672Z" fill="white"/>
<path d="M138.375 0V-1V-1V0ZM160.875 22.5H161.875V22.5L160.875 22.5ZM145.125 43.9688L144.825 43.0147L144.125 43.2347V43.9688H145.125ZM145.125 82.4277H144.125V83.3342L145.027 83.4229L145.125 82.4277ZM178.192 96.0068L177.563 96.7841L178.292 97.3737L178.927 96.6851L178.192 96.0068ZM204.845 67.1309L205.58 67.8091L206.1 67.2452L205.69 66.5965L204.845 67.1309ZM201.375 55.125L200.375 55.125V55.125H201.375ZM223.875 32.625V31.625H223.875L223.875 32.625ZM246.375 55.125H247.375V55.125L246.375 55.125ZM223.875 77.625L223.875 78.625H223.875V77.625ZM213.034 74.8438L213.517 73.9679L212.831 73.5899L212.299 74.1655L213.034 74.8438ZM186.27 103.842L185.535 103.164L184.93 103.819L185.512 104.494L186.27 103.842ZM201.252 140.625L200.254 140.687L200.312 141.625H201.252V140.625ZM234.253 140.625V141.625H235.114L235.242 140.774L234.253 140.625ZM256.5 121.5V120.5H256.5L256.5 121.5ZM279 144H280V144L279 144ZM256.5 166.5L256.5 167.5H256.5V166.5ZM235.418 151.875L236.355 151.525L236.112 150.875H235.418V151.875ZM200.95 151.875V150.875H200.06L199.957 151.759L200.95 151.875ZM189.579 181.09L188.769 180.504L188.241 181.234L188.912 181.834L189.579 181.09ZM216.505 205.227L215.837 205.971L216.363 206.442L216.983 206.105L216.505 205.227ZM227.25 202.5V201.5H227.25L227.25 202.5ZM249.75 225H250.75V225L249.75 225ZM227.25 247.5L227.25 248.5H227.25V247.5ZM204.75 225L203.75 225V225H204.75ZM208.254 212.938L209.098 213.475L209.553 212.76L208.921 212.194L208.254 212.938ZM182.198 189.581L182.866 188.836L182.175 188.217L181.505 188.86L182.198 189.581ZM145.125 206.696L145.027 205.701L144.125 205.79V206.696H145.125ZM145.125 237.28H144.125V238.014L144.825 238.234L145.125 237.28ZM160.875 258.75H161.875V258.75L160.875 258.75ZM138.375 281.25V282.25V282.25V281.25ZM115.875 258.75L114.875 258.75V258.75H115.875ZM133.875 236.7L134.074 237.68L134.875 237.518V236.7H133.875ZM133.875 206.797H134.875V205.874L133.955 205.8L133.875 206.797ZM102.132 195.003L102.722 194.196L102.002 193.669L101.397 194.325L102.132 195.003ZM82.1855 216.615L81.4507 215.937L80.9371 216.493L81.3335 217.139L82.1855 216.615ZM85.5 228.375H86.5V228.375L85.5 228.375ZM63 250.875L63 251.875H63V250.875ZM40.5 228.375L39.5 228.375V228.375H40.5ZM63 205.875V204.875H63L63 205.875ZM74.0928 208.797L73.599 209.666L74.2893 210.058L74.8276 209.475L74.0928 208.797ZM93.6787 187.575L94.4136 188.253L95.0489 187.565L94.4035 186.886L93.6787 187.575ZM76.9248 151.875L77.9181 151.759L77.8149 150.875H76.9248V151.875ZM43.9688 151.875V150.875H43.2347L43.0147 151.575L43.9688 151.875ZM22.5 167.625L22.5 168.625H22.5V167.625ZM0 145.125H-1V145.125H0ZM22.5 122.625V121.625H22.5L22.5 122.625ZM44.5498 140.625L43.5698 140.824L43.7324 141.625H44.5498V140.625ZM76.623 140.625V141.625H77.5628L77.6211 140.687L76.623 140.625ZM89.4717 106.459L90.2635 107.07L90.8308 106.334L90.1392 105.714L89.4717 106.459ZM64.4678 84.0439L65.1353 83.2993L64.6173 82.835L64.0018 83.1591L64.4678 84.0439ZM54 86.625L54 87.625H54V86.625ZM31.5 64.125L30.5 64.125V64.125H31.5ZM54 41.625V40.625H54L54 41.625ZM76.5 64.125H77.5V64.125L76.5 64.125ZM72.834 76.4346L71.9974 75.8867L71.5266 76.6056L72.1665 77.1792L72.834 76.4346ZM97.1152 98.2012L96.4477 98.9458L97.1175 99.5462L97.7853 98.9435L97.1152 98.2012ZM133.875 82.3281L133.955 83.3249L134.875 83.2511V82.3281H133.875ZM133.875 44.5488H134.875V43.7314L134.074 43.5688L133.875 44.5488ZM115.875 22.5L114.875 22.5V22.5H115.875ZM108.968 187.597L108.233 186.918L107.455 187.761L108.396 188.417L108.968 187.597ZM133.875 196.757L133.78 197.752L134.875 197.857V196.757H133.875ZM133.875 166.049H134.875V165.231L134.074 165.069L133.875 166.049ZM129.947 164.867L130.322 163.94L129.681 163.681L129.212 164.189L129.947 164.867ZM151.631 162.18L152.298 161.435L151.695 160.894L151.041 161.372L151.631 162.18ZM145.125 165.469L144.825 164.515L144.125 164.735V165.469H145.125ZM145.125 196.638H144.125V197.762L145.242 197.631L145.125 196.638ZM174.729 182.885L175.411 183.615L176.21 182.869L175.396 182.14L174.729 182.885ZM87.0059 151.875V150.875H85.8566L86.0154 152.013L87.0059 151.875ZM100.479 180.208L99.7452 180.888L100.48 181.681L101.213 180.886L100.479 180.208ZM120.861 158.125L121.596 158.803L122.182 158.169L121.639 157.497L120.861 158.125ZM117.293 151.875L118.23 151.525L117.987 150.875H117.293V151.875ZM159.457 151.875V150.875H158.763L158.52 151.525L159.457 151.875ZM158.783 153.482L157.877 153.06L157.564 153.732L158.116 154.227L158.783 153.482ZM182.084 174.37L181.416 175.115L182.261 175.872L182.906 174.939L182.084 174.37ZM190.869 151.875L191.86 152.013L192.018 150.875H190.869V151.875ZM96.9424 113.155L97.6099 112.411L96.7967 111.682L96.142 112.556L96.9424 113.155ZM86.6465 140.625L85.6492 140.551L85.5695 141.625H86.6465V140.625ZM116.128 140.625V141.625H116.989L117.117 140.774L116.128 140.625ZM118.856 132.8L119.723 133.298L120.127 132.596L119.524 132.055L118.856 132.8ZM158.5 133.931L157.765 133.252L157.296 133.761L157.606 134.379L158.5 133.931ZM160.623 140.625L159.634 140.774L159.762 141.625H160.623V140.625ZM191.229 140.625V141.625H192.306L192.227 140.551L191.229 140.625ZM179.435 111.248L180.206 110.612L179.477 109.727L178.7 110.57L179.435 111.248ZM145.125 122.53H144.125V123.264L144.825 123.484L145.125 122.53ZM151.055 125.411L150.49 126.237L151.204 126.724L151.79 126.089L151.055 125.411ZM171.393 103.374L172.127 104.052L172.86 103.258L172.012 102.589L171.393 103.374ZM145.125 92.4863L145.242 91.4932L144.125 91.3619V92.4863H145.125ZM133.875 92.3672H134.875V91.2668L133.78 91.3717L133.875 92.3672ZM104.61 104.92L103.955 104.164L103.098 104.907L103.943 105.665L104.61 104.92ZM126.727 124.746L126.059 125.491L126.611 125.986L127.245 125.601L126.727 124.746ZM133.875 121.95L134.074 122.93L134.875 122.768V121.95H133.875ZM138.375 0V1C150.249 1 159.875 10.6259 159.875 22.5L160.875 22.5L161.875 22.5C161.875 9.52131 151.354 -1 138.375 -1V0ZM160.875 22.5H159.875C159.875 32.1253 153.549 40.2747 144.825 43.0147L145.125 43.9688L145.425 44.9228C154.958 41.9285 161.875 33.024 161.875 22.5H160.875ZM145.125 43.9688H144.125V82.4277H145.125H146.125V43.9688H145.125ZM145.125 82.4277L145.027 83.4229C157.289 84.6292 168.491 89.4408 177.563 96.7841L178.192 96.0068L178.822 95.2296C169.456 87.6482 157.886 82.6783 145.223 81.4325L145.125 82.4277ZM178.192 96.0068L178.927 96.6851L205.58 67.8091L204.845 67.1309L204.11 66.4526L177.458 95.3286L178.192 96.0068ZM204.845 67.1309L205.69 66.5965C203.591 63.2769 202.375 59.3446 202.375 55.125H201.375H200.375C200.375 59.7346 201.705 64.0358 203.999 67.6652L204.845 67.1309ZM201.375 55.125L202.375 55.125C202.375 43.251 212.001 33.6252 223.875 33.625L223.875 32.625L223.875 31.625C210.896 31.6252 200.375 42.1465 200.375 55.125L201.375 55.125ZM223.875 32.625V33.625C235.749 33.625 245.375 43.2509 245.375 55.125L246.375 55.125L247.375 55.125C247.375 42.1463 236.854 31.625 223.875 31.625V32.625ZM246.375 55.125H245.375C245.375 66.9991 235.749 76.625 223.875 76.625V77.625V78.625C236.854 78.625 247.375 68.1037 247.375 55.125H246.375ZM223.875 77.625L223.875 76.625C220.117 76.6249 216.589 75.6603 213.517 73.9679L213.034 74.8438L212.552 75.7196C215.911 77.5705 219.771 78.6249 223.875 78.625L223.875 77.625ZM213.034 74.8438L212.299 74.1655L185.535 103.164L186.27 103.842L187.004 104.52L213.769 75.522L213.034 74.8438ZM186.27 103.842L185.512 104.494C193.988 114.338 199.396 126.896 200.254 140.687L201.252 140.625L202.25 140.563C201.364 126.321 195.778 113.352 187.027 103.189L186.27 103.842ZM201.252 140.625V141.625H234.253V140.625V139.625H201.252V140.625ZM234.253 140.625L235.242 140.774C236.798 130.431 245.723 122.5 256.5 122.5L256.5 121.5L256.5 120.5C244.719 120.5 234.965 129.169 233.264 140.476L234.253 140.625ZM256.5 121.5V122.5C268.374 122.5 278 132.126 278 144L279 144L280 144C280 131.021 269.479 120.5 256.5 120.5V121.5ZM279 144H278C278 155.874 268.374 165.5 256.5 165.5V166.5V167.5C269.479 167.5 280 156.979 280 144H279ZM256.5 166.5L256.5 165.5C247.275 165.5 239.406 159.689 236.355 151.525L235.418 151.875L234.481 152.225C237.815 161.145 246.413 167.5 256.5 167.5L256.5 166.5ZM235.418 151.875V150.875H200.95V151.875V152.875H235.418V151.875ZM200.95 151.875L199.957 151.759C198.714 162.411 194.747 172.231 188.769 180.504L189.579 181.09L190.39 181.676C196.562 173.133 200.66 162.992 201.943 151.991L200.95 151.875ZM189.579 181.09L188.912 181.834L215.837 205.971L216.505 205.227L217.172 204.482L190.247 180.345L189.579 181.09ZM216.505 205.227L216.983 206.105C220.033 204.444 223.53 203.5 227.25 203.5L227.25 202.5L227.25 201.5C223.187 201.5 219.363 202.532 216.027 204.348L216.505 205.227ZM227.25 202.5V203.5C239.124 203.5 248.75 213.126 248.75 225L249.75 225L250.75 225C250.75 212.021 240.229 201.5 227.25 201.5V202.5ZM249.75 225H248.75C248.75 236.874 239.124 246.5 227.25 246.5V247.5V248.5C240.229 248.5 250.75 237.979 250.75 225H249.75ZM227.25 247.5L227.25 246.5C215.376 246.5 205.75 236.874 205.75 225H204.75H203.75C203.75 237.979 214.271 248.5 227.25 248.5L227.25 247.5ZM204.75 225L205.75 225C205.75 220.758 206.978 216.806 209.098 213.475L208.254 212.938L207.41 212.402C205.093 216.043 203.75 220.366 203.75 225L204.75 225ZM208.254 212.938L208.921 212.194L182.866 188.836L182.198 189.581L181.531 190.326L207.586 213.683L208.254 212.938ZM182.198 189.581L181.505 188.86C171.835 198.155 159.132 204.314 145.027 205.701L145.125 206.696L145.223 207.691C159.79 206.258 172.908 199.898 182.891 190.302L182.198 189.581ZM145.125 206.696H144.125V237.28H145.125H146.125V206.696H145.125ZM145.125 237.28L144.825 238.234C153.549 240.974 159.875 249.125 159.875 258.75L160.875 258.75L161.875 258.75C161.875 248.226 154.958 239.32 145.425 236.326L145.125 237.28ZM160.875 258.75H159.875C159.875 270.624 150.249 280.25 138.375 280.25V281.25V282.25C151.354 282.25 161.875 271.729 161.875 258.75H160.875ZM138.375 281.25V280.25C126.501 280.25 116.875 270.624 116.875 258.75H115.875H114.875C114.875 271.729 125.396 282.25 138.375 282.25V281.25ZM115.875 258.75L116.875 258.75C116.875 248.35 124.261 239.672 134.074 237.68L133.875 236.7L133.676 235.72C122.949 237.898 114.875 247.38 114.875 258.75L115.875 258.75ZM133.875 236.7H134.875V206.797H133.875H132.875V236.7H133.875ZM133.875 206.797L133.955 205.8C122.33 204.867 111.62 200.699 102.722 194.196L102.132 195.003L101.542 195.81C110.729 202.525 121.791 206.83 133.795 207.794L133.875 206.797ZM102.132 195.003L101.397 194.325L81.4507 215.937L82.1855 216.615L82.9204 217.293L102.867 195.681L102.132 195.003ZM82.1855 216.615L81.3335 217.139C83.3416 220.408 84.4999 224.255 84.5 228.375L85.5 228.375L86.5 228.375C86.4999 223.874 85.2336 219.667 83.0376 216.092L82.1855 216.615ZM85.5 228.375H84.5C84.5 240.249 74.8741 249.875 63 249.875V250.875V251.875C75.9787 251.875 86.5 241.354 86.5 228.375H85.5ZM63 250.875L63 249.875C51.1259 249.875 41.5 240.249 41.5 228.375H40.5H39.5C39.5 241.354 50.0214 251.875 63 251.875L63 250.875ZM40.5 228.375L41.5 228.375C41.5001 216.501 51.126 206.875 63 206.875L63 205.875L63 204.875C50.0214 204.875 39.5002 215.396 39.5 228.375L40.5 228.375ZM63 205.875V206.875C66.8559 206.875 70.4715 207.891 73.599 209.666L74.0928 208.797L74.5865 207.927C71.1664 205.985 67.2116 204.875 63 204.875V205.875ZM74.0928 208.797L74.8276 209.475L94.4136 188.253L93.6787 187.575L92.9438 186.897L73.3579 208.119L74.0928 208.797ZM93.6787 187.575L94.4035 186.886C85.4818 177.502 79.4979 165.302 77.9181 151.759L76.9248 151.875L75.9315 151.991C77.5633 165.979 83.744 178.576 92.954 188.264L93.6787 187.575ZM76.9248 151.875V150.875H43.9688V151.875V152.875H76.9248V151.875ZM43.9688 151.875L43.0147 151.575C40.2747 160.299 32.1253 166.625 22.5 166.625V167.625V168.625C33.024 168.625 41.9285 161.708 44.9228 152.175L43.9688 151.875ZM22.5 167.625L22.5 166.625C10.6259 166.625 1 156.999 1 145.125H0H-1C-1 158.104 9.52131 168.625 22.5 168.625L22.5 167.625ZM0 145.125H1C1.00008 133.251 10.6259 123.625 22.5 123.625L22.5 122.625L22.5 121.625C9.52135 121.625 -0.999907 132.146 -1 145.125H0ZM22.5 122.625V123.625C32.9003 123.625 41.5777 131.011 43.5698 140.824L44.5498 140.625L45.5298 140.426C43.3523 129.699 33.8702 121.625 22.5 121.625V122.625ZM44.5498 140.625V141.625H76.623V140.625V139.625H44.5498V140.625ZM76.623 140.625L77.6211 140.687C78.4062 128.071 82.998 116.488 90.2635 107.07L89.4717 106.459L88.6799 105.848C81.1784 115.572 76.4357 127.535 75.625 140.563L76.623 140.625ZM89.4717 106.459L90.1392 105.714L65.1353 83.2993L64.4678 84.0439L63.8003 84.7886L88.8042 107.204L89.4717 106.459ZM64.4678 84.0439L64.0018 83.1591C61.0145 84.7323 57.6131 85.625 54 85.625V86.625V87.625C57.9465 87.625 61.6668 86.6491 64.9337 84.9288L64.4678 84.0439ZM54 86.625L54 85.625C42.1259 85.6249 32.5 75.9991 32.5 64.125H31.5H30.5C30.5 77.1037 41.0213 87.6249 54 87.625L54 86.625ZM31.5 64.125L32.5 64.125C32.5001 52.2509 42.1259 42.625 54 42.625L54 41.625L54 40.625C41.0214 40.6251 30.5001 51.1464 30.5 64.125L31.5 64.125ZM54 41.625V42.625C65.8741 42.625 75.4999 52.2509 75.5 64.125L76.5 64.125L77.5 64.125C77.4999 51.1463 66.9787 40.625 54 40.625V41.625ZM76.5 64.125H75.5C75.5 68.4682 74.2109 72.5069 71.9974 75.8867L72.834 76.4346L73.6705 76.9824C76.0903 73.2876 77.5 68.8701 77.5 64.125H76.5ZM72.834 76.4346L72.1665 77.1792L96.4477 98.9458L97.1152 98.2012L97.7827 97.4566L73.5015 75.69L72.834 76.4346ZM97.1152 98.2012L97.7853 98.9435C107.525 90.1522 120.09 84.4374 133.955 83.3249L133.875 82.3281L133.795 81.3313C119.477 82.4803 106.5 88.383 96.4452 97.4589L97.1152 98.2012ZM133.875 82.3281H134.875V44.5488H133.875H132.875V82.3281H133.875ZM133.875 44.5488L134.074 43.5688C124.261 41.5767 116.875 32.9002 116.875 22.5H115.875H114.875C114.875 33.8702 122.949 43.3512 133.676 45.5288L133.875 44.5488ZM115.875 22.5L116.875 22.5C116.875 10.6259 126.501 1.00008 138.375 1V0V-1C125.396 -0.999912 114.875 9.52135 114.875 22.5L115.875 22.5ZM108.968 187.597L108.396 188.417C115.726 193.531 124.399 196.854 133.78 197.752L133.875 196.757L133.97 195.761C124.942 194.896 116.596 191.699 109.54 186.777L108.968 187.597ZM133.875 196.757H134.875V166.049H133.875H132.875V196.757H133.875ZM133.875 166.049L134.074 165.069C132.777 164.806 131.523 164.425 130.322 163.94L129.947 164.867L129.572 165.794C130.886 166.325 132.258 166.741 133.676 167.029L133.875 166.049ZM129.947 164.867L129.212 164.189L108.233 186.918L108.968 187.597L109.703 188.275L130.682 165.545L129.947 164.867ZM151.631 162.18L151.041 161.372C149.173 162.736 147.079 163.807 144.825 164.515L145.125 165.469L145.425 166.423C147.891 165.648 150.18 164.477 152.221 162.987L151.631 162.18ZM145.125 165.469H144.125V196.638H145.125H146.125V165.469H145.125ZM145.125 196.638L145.242 197.631C156.844 196.267 167.308 191.187 175.411 183.615L174.729 182.885L174.046 182.154C166.243 189.444 156.173 194.332 145.008 195.645L145.125 196.638ZM174.729 182.885L175.396 182.14L152.298 161.435L151.631 162.18L150.963 162.924L174.061 183.629L174.729 182.885ZM87.0059 151.875L86.0154 152.013C87.5606 163.088 92.4997 173.074 99.7452 180.888L100.479 180.208L101.212 179.528C94.2355 172.005 89.4831 162.393 87.9963 151.737L87.0059 151.875ZM100.479 180.208L101.213 180.886L121.596 158.803L120.861 158.125L120.127 157.447L99.7437 179.53L100.479 180.208ZM120.861 158.125L121.639 157.497C120.202 155.717 119.044 153.705 118.23 151.525L117.293 151.875L116.356 152.225C117.247 154.609 118.513 156.809 120.083 158.753L120.861 158.125ZM117.293 151.875V150.875H87.0059V151.875V152.875H117.293V151.875ZM159.457 151.875L158.52 151.525C158.326 152.046 158.11 152.558 157.877 153.06L158.783 153.482L159.69 153.904C159.945 153.356 160.18 152.796 160.394 152.225L159.457 151.875ZM158.783 153.482L158.116 154.227L181.416 175.115L182.084 174.37L182.751 173.626L159.451 152.738L158.783 153.482ZM182.084 174.37L182.906 174.939C187.538 168.247 190.683 160.445 191.86 152.013L190.869 151.875L189.879 151.737C188.747 159.851 185.721 167.359 181.262 173.801L182.084 174.37ZM190.869 151.875V150.875H159.457V151.875V152.875H190.869V151.875ZM96.9424 113.155L96.142 112.556C90.2107 120.474 86.4256 130.094 85.6492 140.551L86.6465 140.625L87.6437 140.699C88.3909 130.635 92.0331 121.377 97.7427 113.755L96.9424 113.155ZM86.6465 140.625V141.625H116.128V140.625V139.625H86.6465V140.625ZM116.128 140.625L117.117 140.774C117.521 138.087 118.421 135.563 119.723 133.298L118.856 132.8L117.99 132.301C116.566 134.778 115.581 137.538 115.139 140.476L116.128 140.625ZM118.856 132.8L119.524 132.055L97.6099 112.411L96.9424 113.155L96.2749 113.9L118.189 133.544L118.856 132.8ZM158.5 133.931L157.606 134.379C158.597 136.356 159.293 138.507 159.634 140.774L160.623 140.625L161.612 140.476C161.239 137.997 160.478 135.644 159.394 133.482L158.5 133.931ZM160.623 140.625V141.625H191.229V140.625V139.625H160.623V140.625ZM191.229 140.625L192.227 140.551C191.386 129.222 187.013 118.876 180.206 110.612L179.435 111.248L178.663 111.884C185.215 119.84 189.423 129.796 190.232 140.699L191.229 140.625ZM179.435 111.248L178.7 110.57L157.765 133.252L158.5 133.931L159.235 134.609L180.169 111.926L179.435 111.248ZM145.125 122.53L144.825 123.484C146.86 124.123 148.765 125.058 150.49 126.237L151.055 125.411L151.619 124.586C149.734 123.297 147.651 122.275 145.425 121.576L145.125 122.53ZM151.055 125.411L151.79 126.089L172.127 104.052L171.393 103.374L170.658 102.696L150.32 124.733L151.055 125.411ZM171.393 103.374L172.012 102.589C164.469 96.637 155.281 92.6733 145.242 91.4932L145.125 92.4863L145.008 93.4795C154.669 94.6152 163.511 98.429 170.773 104.159L171.393 103.374ZM145.125 92.4863H144.125V122.53H145.125H146.125V92.4863H145.125ZM133.875 92.3672L133.78 91.3717C122.426 92.4594 112.109 97.0979 103.955 104.164L104.61 104.92L105.265 105.676C113.115 98.8725 123.044 94.4094 133.97 93.3626L133.875 92.3672ZM104.61 104.92L103.943 105.665L126.059 125.491L126.727 124.746L127.394 124.001L105.278 104.175L104.61 104.92ZM126.727 124.746L127.245 125.601C129.318 124.344 131.62 123.428 134.074 122.93L133.875 121.95L133.676 120.97C130.992 121.515 128.474 122.517 126.208 123.891L126.727 124.746ZM133.875 121.95H134.875V92.3672H133.875H132.875V121.95H133.875Z" fill="black" mask="url(#path-1-inside-1_5_17)"/>
</svg>
